<svg xmlns="http://www.w3.org/2000/svg" width="1024" height="1024" viewBox="0 0 1024 1024">
  <defs>
    <linearGradient id="bg" x1="160" y1="80" x2="864" y2="944" gradientUnits="userSpaceOnUse">
      <stop stop-color="#111820"/>
      <stop offset="1" stop-color="#060A0D"/>
    </linearGradient>
    <linearGradient id="accent" x1="224" y1="190" x2="820" y2="832" gradientUnits="userSpaceOnUse">
      <stop stop-color="#38E0C8"/>
      <stop offset="1" stop-color="#20B9A5"/>
    </linearGradient>
  </defs>
  <rect x="64" y="64" width="896" height="896" rx="210" fill="url(#bg)"/>
  <rect x="128" y="128" width="768" height="768" rx="170" fill="#0D141A" stroke="#20303B" stroke-width="28"/>
  <path d="M252 618c90 0 164 74 164 164" fill="none" stroke="url(#accent)" stroke-width="76" stroke-linecap="round"/>
  <path d="M252 462c176 0 320 144 320 320" fill="none" stroke="url(#accent)" stroke-width="76" stroke-linecap="round"/>
  <path d="M252 306c262 0 476 214 476 476" fill="none" stroke="url(#accent)" stroke-width="76" stroke-linecap="round"/>
  <rect x="348" y="226" width="392" height="258" rx="46" fill="#EAF1F7"/>
  <rect x="402" y="284" width="284" height="142" rx="20" fill="#101820"/>
  <path d="M502 326v60l62-30-62-30z" fill="#38E0C8"/>
  <rect x="476" y="518" width="136" height="42" rx="21" fill="#EAF1F7"/>
</svg>
