<svg xmlns="http://www.w3.org/2000/svg" width="1024" height="1024" viewBox="0 0 1024 1024"><defs><linearGradient id="bg" x1="160" x2="864" y1="80" y2="944" gradientUnits="userSpaceOnUse"><stop stop-color="#111820"/><stop offset="1" stop-color="#060A0D"/></linearGradient><linearGradient id="accent" x1="224" x2="820" y1="190" y2="832" gradientUnits="userSpaceOnUse"><stop stop-color="#38E0C8"/><stop offset="1" stop-color="#20B9A5"/></linearGradient></defs><rect width="896" height="896" x="64" y="64" fill="url(#bg)" rx="210"/><rect width="768" height="768" x="128" y="128" fill="#0D141A" stroke="#20303B" stroke-width="28" rx="170"/><path fill="none" stroke="url(#accent)" stroke-linecap="round" stroke-width="76" d="M252 618c90 0 164 74 164 164"/><path fill="none" stroke="url(#accent)" stroke-linecap="round" stroke-width="76" d="M252 462c176 0 320 144 320 320"/><path fill="none" stroke="url(#accent)" stroke-linecap="round" stroke-width="76" d="M252 306c262 0 476 214 476 476"/><rect width="392" height="258" x="348" y="226" fill="#EAF1F7" rx="46"/><rect width="284" height="142" x="402" y="284" fill="#101820" rx="20"/><path fill="#38E0C8" d="M502 326v60l62-30-62-30z"/><rect width="136" height="42" x="476" y="518" fill="#EAF1F7" rx="21"/></svg>